<svg aria-hidden="true" style="position: absolute; width: 0; height: 0; overflow: hidden;" version="1.1" xmlns="http://www.w3.org/2000/svg" xmlns:xlink="http://www.w3.org/1999/xlink">
<defs>
<symbol id="playstore" viewBox="0 0 32 32">
<path fill="#32bbff" style="fill: var(--color1, #32bbff)" d="M23.898 10.976c-3.717-2.079-9.684-5.418-18.938-10.6-0.624-0.412-1.342-0.466-1.962-0.256l15.878 15.878 5.022-5.022z"></path>
<path fill="#32bbff" style="fill: var(--color1, #32bbff)" d="M2.998 0.121c-0.116 0.039-0.229 0.087-0.338 0.144-0.685 0.371-1.188 1.083-1.188 1.985v27.498c0 0.902 0.503 1.615 1.188 1.985 0.108 0.057 0.221 0.105 0.337 0.145l15.879-15.878-15.878-15.878z"></path>
<path fill="#32bbff" style="fill: var(--color1, #32bbff)" d="M18.876 15.999l-15.879 15.878c0.62 0.211 1.338 0.162 1.962-0.256 8.975-5.026 14.874-8.325 18.635-10.422 0.105-0.059 0.207-0.116 0.309-0.173l-5.027-5.027z"></path>
<path fill="#2c9fd9" style="fill: var(--color2, #2c9fd9)" d="M1.472 15.999v13.749c0 0.902 0.503 1.615 1.188 1.985 0.108 0.057 0.221 0.105 0.337 0.145l15.879-15.878h-17.404z"></path>
<path fill="#29cc5e" style="fill: var(--color3, #29cc5e)" d="M4.96 0.377c-0.741-0.489-1.615-0.475-2.3-0.112l15.975 15.975 5.263-5.263c-3.717-2.079-9.684-5.418-18.938-10.6z"></path>
<path fill="#d93f21" style="fill: var(--color4, #d93f21)" d="M18.635 15.758l-15.975 15.975c0.685 0.363 1.559 0.384 2.3-0.112 8.975-5.026 14.874-8.325 18.635-10.422 0.105-0.059 0.207-0.116 0.309-0.173l-5.268-5.268z"></path>
<path fill="#ffd500" style="fill: var(--color5, #ffd500)" d="M30.528 15.999c0-0.762-0.384-1.531-1.146-1.957 0 0-1.425-0.795-5.793-3.238l-5.195 5.195 5.2 5.2c4.32-2.425 5.788-3.243 5.788-3.243 0.762-0.426 1.146-1.195 1.146-1.957z"></path>
<path fill="#fa0" style="fill: var(--color6, #fa0)" d="M29.382 17.956c0.762-0.426 1.146-1.195 1.146-1.957h-12.134l5.2 5.2c4.32-2.425 5.788-3.243 5.788-3.243z"></path>
</symbol>
<symbol id="rich" viewBox="0 0 32 32">
<path fill="#fff" style="fill: var(--color7, #fff)" d="M28 30h-6c-0.53 0-1.039-0.211-1.414-0.586s-0.586-0.884-0.586-1.414v-6c0-0.53 0.211-1.039 0.586-1.414s0.884-0.586 1.414-0.586h6c0.53 0 1.039 0.211 1.414 0.586s0.586 0.884 0.586 1.414v6c0 0.53-0.211 1.039-0.586 1.414s-0.884 0.586-1.414 0.586zM22 22v6h6v-6h-6zM18 26h-6c-0.795-0.001-1.558-0.317-2.12-0.88s-0.879-1.325-0.88-2.12v-4h2v4c0 0.265 0.105 0.52 0.293 0.707s0.442 0.293 0.707 0.293h6v2zM26 18h-2v-3c0-0.265-0.105-0.52-0.293-0.707s-0.442-0.293-0.707-0.293h-5v-2h5c0.796 0.001 1.558 0.317 2.12 0.88s0.879 1.325 0.88 2.12v3zM15 18c-0.174 0-0.346-0.046-0.497-0.132l-4.503-2.58-4.503 2.58c-0.169 0.097-0.362 0.142-0.557 0.13s-0.381-0.080-0.537-0.196c-0.156-0.116-0.275-0.275-0.342-0.458s-0.079-0.381-0.035-0.571l1.061-4.572-2.818-3.020c-0.123-0.132-0.208-0.295-0.246-0.472s-0.027-0.36 0.031-0.531c0.058-0.171 0.161-0.323 0.299-0.44s0.304-0.195 0.482-0.225l4.2-0.702 2.066-4.25c0.081-0.167 0.207-0.308 0.364-0.407s0.338-0.153 0.524-0.155c0.186-0.002 0.368 0.048 0.527 0.143s0.288 0.234 0.373 0.399l2.204 4.27 4.077 0.702c0.178 0.031 0.344 0.109 0.481 0.226s0.24 0.27 0.297 0.441c0.058 0.171 0.068 0.354 0.029 0.531s-0.123 0.339-0.247 0.471l-2.818 3.020 1.060 4.572c0.034 0.146 0.035 0.299 0.002 0.446s-0.099 0.284-0.192 0.402c-0.094 0.118-0.212 0.213-0.348 0.279s-0.284 0.1-0.434 0.1zM10 13c0 0 0.343 0.18 0.497 0.269l3.010 1.724-0.784-3.377 2.282-2.445-3.233-0.557-1.745-3.382-1.644 3.382-3.381 0.565 2.274 2.437-0.784 3.377 3.010-1.724c0.156-0.089 0.498-0.269 0.498-0.269z"></path>
</symbol>
<symbol id="social" viewBox="0 0 32 32">
<path fill="#eee" style="fill: var(--color8, #eee)" d="M25 10h-18c-0.795 0.001-1.558 0.317-2.12 0.88s-0.879 1.325-0.88 2.12v6c0 0.53 0.211 1.039 0.586 1.414s0.884 0.586 1.414 0.586v7c0 0.53 0.211 1.039 0.586 1.414s0.884 0.586 1.414 0.586h4c0.53 0 1.039-0.211 1.414-0.586s0.586-0.884 0.586-1.414v-12h-2v12h-4v-9h-2v-6c0-0.265 0.105-0.52 0.293-0.707s0.442-0.293 0.707-0.293h18c0.265 0 0.52 0.105 0.707 0.293s0.293 0.442 0.293 0.707v6h-2v9h-4v-12h-2v12c0 0.53 0.211 1.039 0.586 1.414s0.884 0.586 1.414 0.586h4c0.53 0 1.039-0.211 1.414-0.586s0.586-0.884 0.586-1.414v-7c0.53 0 1.039-0.211 1.414-0.586s0.586-0.884 0.586-1.414v-6c-0.001-0.795-0.317-1.558-0.88-2.12s-1.325-0.879-2.12-0.88zM10 9c-0.791 0-1.564-0.235-2.222-0.674s-1.171-1.064-1.473-1.795c-0.303-0.731-0.382-1.535-0.228-2.311s0.535-1.489 1.095-2.048c0.559-0.559 1.272-0.94 2.048-1.095s1.58-0.075 2.311 0.228c0.731 0.303 1.356 0.815 1.795 1.473s0.674 1.431 0.674 2.222c-0.001 1.061-0.423 2.077-1.173 2.827s-1.767 1.172-2.827 1.173zM10 3c-0.396 0-0.782 0.117-1.111 0.337s-0.585 0.532-0.737 0.898c-0.151 0.365-0.191 0.768-0.114 1.156s0.268 0.744 0.547 1.024c0.28 0.28 0.636 0.47 1.024 0.547s0.79 0.038 1.156-0.114c0.365-0.151 0.678-0.408 0.898-0.737s0.337-0.716 0.337-1.111c0-0.53-0.211-1.039-0.586-1.414s-0.884-0.586-1.414-0.586zM22 9c-0.791 0-1.564-0.235-2.222-0.674s-1.171-1.064-1.473-1.795c-0.303-0.731-0.382-1.535-0.228-2.311s0.535-1.489 1.095-2.048 1.272-0.94 2.048-1.095c0.776-0.154 1.58-0.075 2.311 0.228s1.356 0.815 1.795 1.473c0.439 0.658 0.674 1.431 0.674 2.222-0.001 1.061-0.423 2.077-1.173 2.827s-1.767 1.172-2.827 1.173zM22 3c-0.396 0-0.782 0.117-1.111 0.337s-0.585 0.532-0.737 0.898c-0.151 0.365-0.191 0.768-0.114 1.156s0.268 0.744 0.547 1.024 0.636 0.47 1.024 0.547c0.388 0.077 0.79 0.038 1.156-0.114s0.678-0.408 0.898-0.737c0.22-0.329 0.337-0.716 0.337-1.111 0-0.53-0.211-1.039-0.586-1.414s-0.884-0.586-1.414-0.586z"></path>
</symbol>
<symbol id="star" viewBox="0 0 32 32">
<path fill="#ffde31" style="fill: var(--color9, #ffde31)" d="M25.726 31.909c-1.138 0.851-8.443-4.546-9.842-4.557s-8.786 5.261-9.911 4.39c-1.125-0.87 1.52-9.812 1.098-11.209s-7.494-7.123-7.051-8.512c0.443-1.389 9.383-1.518 10.521-2.37s4.154-9.663 5.554-9.651c1.399 0.012 4.279 8.873 5.404 9.744s10.062 1.151 10.484 2.547c0.422 1.397-6.739 7.003-7.181 8.392s2.064 10.374 0.925 11.226z"></path>
</symbol>
<symbol id="update" viewBox="0 0 32 32">
<path fill="#eee" style="fill: var(--color8, #eee)" d="M16 28c-1.667 0-3.228-0.316-4.683-0.949s-2.722-1.488-3.8-2.567c-1.078-1.078-1.934-2.345-2.567-3.8s-0.95-3.016-0.951-4.684c-0.001-1.668 0.316-3.228 0.951-4.683s1.49-2.721 2.565-3.8 2.342-1.935 3.8-2.567c1.458-0.632 3.019-0.949 4.684-0.951 1.822 0 3.55 0.389 5.184 1.167s3.017 1.878 4.149 3.3v-3.133h2.667v8h-8v-2.667h3.667c-0.911-1.244-2.033-2.222-3.367-2.933s-2.767-1.067-4.3-1.067c-2.6 0-4.805 0.906-6.616 2.717s-2.716 4.017-2.717 6.616 0.905 4.805 2.717 6.617c1.812 1.813 4.018 2.718 6.616 2.716 2.333 0 4.372-0.756 6.117-2.267s2.773-3.422 3.083-5.733h2.733c-0.333 3.044-1.639 5.584-3.916 7.617s-4.95 3.050-8.017 3.049zM19.733 21.6l-5.067-5.067v-7.2h2.667v6.133l4.267 4.267-1.867 1.867z"></path>
</symbol>
<symbol id="free_game" viewBox="0 0 32 32">
<path fill="none" stroke="#eee" style="stroke: var(--color8, #eee)" stroke-linejoin="round" stroke-linecap="round" stroke-miterlimit="4" stroke-width="2.6667" d="M4 16c0 1.576 0.31 3.136 0.913 4.592s1.487 2.779 2.601 3.893c1.114 1.114 2.437 1.998 3.893 2.601s3.016 0.913 4.592 0.913 3.136-0.31 4.592-0.913c1.456-0.603 2.779-1.487 3.893-2.601s1.998-2.437 2.601-3.893c0.603-1.456 0.913-3.016 0.913-4.592s-0.31-3.136-0.913-4.592c-0.603-1.456-1.487-2.779-2.601-3.893s-2.437-1.998-3.893-2.601c-1.456-0.603-3.016-0.913-4.592-0.913s-3.136 0.31-4.592 0.913c-1.456 0.603-2.779 1.487-3.893 2.601s-1.998 2.437-2.601 3.893c-0.603 1.456-0.913 3.016-0.913 4.592z"></path>
<path fill="none" stroke="#eee" style="stroke: var(--color8, #eee)" stroke-linejoin="round" stroke-linecap="round" stroke-miterlimit="4" stroke-width="2.6667" d="M18.489 13c-0.328-0.64-0.944-1.025-1.6-1h-1.779c-0.981 0-1.777 0.893-1.777 2 0 1.103 0.796 1.999 1.777 1.999h1.779c0.981 0 1.777 0.895 1.777 2 0 1.104-0.796 1.999-1.777 1.999h-1.779c-0.656 0.025-1.272-0.36-1.6-1M16 9.333v2.667M16 20v2.667M8 8l2 2M22 22l2 2"></path>
</symbol>
<symbol id="game" viewBox="0 0 32 32">
<path fill="#fff" style="fill: var(--color7, #fff)" d="M22.667 5.333c1.017 0 1.859 0.579 2.475 1.187 0.641 0.631 1.229 1.479 1.752 2.413 1.049 1.875 1.963 4.324 2.567 6.744 0.6 2.401 0.932 4.909 0.72 6.881-0.213 1.98-1.233 4.108-3.513 4.108-1.968 0-3.536-1.013-4.819-2.041l-0.468-0.385-0.656-0.553-0.592-0.491c-1.359-1.1-2.565-1.863-4.132-1.863s-2.773 0.763-4.132 1.863l-0.592 0.491-0.656 0.553-0.467 0.385c-1.285 1.028-2.853 2.041-4.82 2.041-2.281 0-3.301-2.128-3.513-4.108-0.211-1.973 0.12-4.48 0.72-6.881 0.604-2.42 1.517-4.869 2.567-6.745 0.523-0.933 1.111-1.781 1.752-2.413 0.616-0.607 1.457-1.185 2.475-1.185 0.687 0 1.357 0.164 2.017 0.36l0.789 0.241c0.132 0.041 0.263 0.080 0.393 0.116 1.153 0.331 2.333 0.616 3.467 0.616s2.313-0.285 3.467-0.616l1.18-0.356c0.664-0.196 1.34-0.361 2.020-0.361zM22.667 8c-0.511 0-1.044 0.155-1.561 0.324l-0.611 0.201-0.295 0.091c-1.18 0.336-2.667 0.717-4.2 0.717s-3.020-0.381-4.2-0.717l-0.293-0.091-0.612-0.201c-0.517-0.171-1.051-0.324-1.561-0.324-0.557 0.104-1.057 0.78-1.435 1.407l-0.211 0.367-0.253 0.461c-0.909 1.624-1.747 3.84-2.307 6.089-0.527 2.101-0.783 4.115-0.685 5.613l0.035 0.391 0.027 0.235 0.040 0.277c0.092 0.535 0.291 1.16 0.789 1.16 1.083 0 1.987-0.539 3.111-1.432l0.537-0.437 1.013-0.848 0.459-0.373c1.419-1.124 3.193-2.243 5.547-2.243s4.128 1.12 5.547 2.243l0.46 0.373 1.013 0.848 0.536 0.437c1.124 0.893 2.027 1.432 3.111 1.432 0.453 0 0.659-0.516 0.761-1.012l0.051-0.291 0.049-0.423c0.164-1.528-0.089-3.687-0.655-5.951-0.515-2.061-1.261-4.096-2.083-5.672l-0.479-0.88-0.211-0.364c-0.377-0.628-0.877-1.304-1.435-1.408zM11.333 10.667c0.884 0 1.732 0.351 2.357 0.976s0.976 1.473 0.976 2.357c0 0.884-0.351 1.732-0.976 2.357s-1.473 0.976-2.357 0.976c-0.884 0-1.732-0.351-2.357-0.976s-0.976-1.473-0.976-2.357c0-0.884 0.351-1.732 0.976-2.357s1.473-0.976 2.357-0.976zM20.667 10.667c0.326 0 0.642 0.12 0.886 0.337s0.4 0.516 0.438 0.84l0.009 0.156v0.667h0.667c0.34 0 0.667 0.13 0.914 0.364s0.396 0.552 0.416 0.891c0.020 0.339-0.090 0.673-0.308 0.934s-0.528 0.428-0.865 0.468l-0.156 0.009h-0.667v0.667c-0 0.34-0.131 0.667-0.364 0.914s-0.552 0.396-0.891 0.416c-0.339 0.020-0.673-0.090-0.934-0.309s-0.428-0.527-0.468-0.865l-0.009-0.156v-0.667h-0.667c-0.34-0-0.667-0.13-0.914-0.364s-0.396-0.552-0.416-0.891 0.090-0.673 0.309-0.934c0.218-0.261 0.527-0.428 0.865-0.468l0.156-0.009h0.667v-0.667c0-0.354 0.14-0.693 0.391-0.943s0.589-0.391 0.943-0.391zM11.333 13.334c-0.177 0-0.346 0.070-0.471 0.195s-0.195 0.295-0.195 0.471 0.070 0.346 0.195 0.471c0.125 0.125 0.295 0.195 0.471 0.195s0.346-0.070 0.471-0.195c0.125-0.125 0.195-0.295 0.195-0.471s-0.070-0.346-0.195-0.471c-0.125-0.125-0.295-0.195-0.471-0.195z"></path>
</symbol>
<symbol id="burger" viewBox="0 0 32 32">
<path fill="none" stroke="#fff" style="stroke: var(--color7, #fff)" stroke-linejoin="round" stroke-linecap="round" stroke-miterlimit="4" stroke-width="3.3333" d="M4 8h24M4 16h24M4 24h24"></path>
</symbol>
<symbol id="close_burger" viewBox="0 0 32 32">
<path fill="none" stroke="#fff" style="stroke: var(--color7, #fff)" stroke-linejoin="round" stroke-linecap="round" stroke-miterlimit="4" stroke-width="3.3333" d="M24 8l-16 16"></path>
<path fill="none" stroke="#fff" style="stroke: var(--color7, #fff)" stroke-linejoin="round" stroke-linecap="round" stroke-miterlimit="4" stroke-width="3.3333" d="M8 8l16 16"></path>
</symbol>
<symbol id="combos" viewBox="0 0 32 32">
<path fill="#fff" style="fill: var(--color7, #fff)" d="M12.735 1.28c-0.063 0.001-0.127 0.004-0.189 0.006-4.362 0.157-8.298 3.086-9.486 7.519-0.69 2.575 0.847 5.239 3.42 5.93v-0.002c2.573 0.689 5.186-0.853 5.873-3.418 0.495-1.849 1.428-3.177 2.726-3.885s2.896-0.77 4.633-0.305c0.654 0.175 1.249 0.439 1.785 0.791 0.274-0.143 0.558-0.265 0.85-0.365-0.539-1.305-1.332-2.491-2.359-3.463h-0.002c-0.004-0.004-0.008-0.008-0.012-0.012-1.188-1.121-2.672-1.986-4.369-2.442-0.959-0.257-1.923-0.372-2.869-0.355v0zM7.795 6.465c0.912 0 1.825 0.347 2.518 1.039 1.386 1.386 1.383 3.65-0.002 5.035l-0.17 0.17h-0.020c-1.396 1.209-3.522 1.154-4.846-0.17-1.386-1.386-1.385-3.65 0-5.035 0.693-0.693 1.607-1.039 2.52-1.039zM7.795 7.625c-0.611-0-1.224 0.233-1.693 0.703-0.223 0.222-0.4 0.485-0.521 0.776s-0.183 0.602-0.183 0.917c0 0.315 0.062 0.626 0.183 0.916s0.298 0.554 0.521 0.776c0.222 0.223 0.485 0.4 0.776 0.521s0.602 0.183 0.917 0.183 0.626-0.062 0.917-0.183c0.29-0.121 0.554-0.298 0.776-0.521 0.223-0.222 0.4-0.485 0.521-0.776s0.183-0.602 0.183-0.916c0-0.315-0.062-0.626-0.183-0.917s-0.298-0.554-0.521-0.776c-0.469-0.469-1.080-0.703-1.691-0.703zM16.754 8.067c-0.407 0.074-0.78 0.205-1.117 0.389-0.282 0.154-0.541 0.345-0.771 0.568 1.438 0.003 2.875 0.43 4.111 1.277 0.192-0.349 0.419-0.678 0.678-0.98-0.878-0.598-1.863-1.024-2.901-1.254h0zM24.237 8.401c-1.253 0-2.505 0.47-3.445 1.41-1.879 1.879-1.799 4.931 0.082 6.81 1.355 1.354 2.039 2.834 2.002 4.316s-0.785 2.902-2.057 4.174c-0.617 0.617-1.325 1.023-2.055 1.303-0.034 0.224-0.086 0.441-0.145 0.656 3.152 0.566 6.497-0.356 8.955-2.813 3.998-3.996 4.104-10.455 0.11-14.447-0.941-0.941-2.194-1.411-3.447-1.41v0zM24.171 9.738c0.912 0 1.825 0.347 2.518 1.039 1.386 1.386 1.385 3.65 0 5.035s-3.65 1.385-5.035 0c-1.386-1.386-1.385-3.65 0-5.035 0.693-0.693 1.605-1.039 2.518-1.039h0zM24.171 10.899c-0.611-0-1.222 0.235-1.692 0.705-0.223 0.222-0.4 0.485-0.521 0.775s-0.183 0.602-0.183 0.916c0 0.315 0.062 0.626 0.183 0.916s0.298 0.554 0.521 0.775c0.221 0.223 0.485 0.4 0.775 0.521s0.602 0.183 0.916 0.183c0.314 0 0.626-0.062 0.916-0.183s0.554-0.298 0.775-0.521c0.223-0.222 0.4-0.485 0.521-0.775s0.183-0.602 0.183-0.916c0-0.315-0.062-0.626-0.183-0.916s-0.298-0.554-0.521-0.775c-0.469-0.469-1.080-0.705-1.691-0.705v-0zM14.967 11.838c-0.569 0-1.132 0.108-1.66 0.318-0.513 1.383-1.501 2.487-2.727 3.164-0.34 1.462 0.060 3.060 1.203 4.203 0.049 0.049 0.1 0.096 0.15 0.142 1.373-0.216 2.741 0.051 3.898 0.697l0.048 0.020 0.458 0.246c0.683-0.219 1.304-0.598 1.811-1.105 0.776-0.776 1.21-1.761 1.303-2.771-0.759-1.028-1.16-2.249-1.189-3.474-0.037-0.040-0.074-0.080-0.113-0.119-0.881-0.881-2.031-1.32-3.182-1.32v-0zM3.356 14.108c-1.856 2.413-2.588 5.631-1.73 8.832 1.462 5.46 7.006 8.768 12.461 7.307 0.001-0 0.001 0 0.002 0 2.571-0.691 4.133-3.388 3.445-5.957-0.257-0.958-0.787-1.769-1.482-2.367l-0.014-0.012c-1.173-1-2.825-1.415-4.432-0.984-1.848 0.496-3.472 0.354-4.74-0.414s-2.126-2.119-2.592-3.857c-0.171-0.642-0.212-1.278-0.178-1.885-0.264-0.2-0.512-0.422-0.74-0.662l-0 0zM6.407 15.918c-0.052 1.044 0.088 2.095 0.422 3.098 0.2 0.193 0.414 0.359 0.643 0.498 0.303 0.184 0.637 0.325 1.004 0.416-0.674-1.194-0.986-2.538-0.936-3.869-0.381-0.011-0.761-0.059-1.133-0.143v0zM21.455 19.486c-0.349 0.732-0.827 1.419-1.433 2.026-0.544 0.544-1.153 0.985-1.801 1.322 0.18 0.355 0.324 0.727 0.43 1.111 0.8-0.395 1.549-0.924 2.215-1.59 0.283-0.282 0.545-0.585 0.785-0.904 0.033-0.182 0.052-0.363 0.057-0.543 0.012-0.467-0.067-0.94-0.252-1.422l-0 0zM12.705 21.981c0.912 0 1.825 0.347 2.518 1.039 1.386 1.386 1.385 3.65 0 5.035s-3.65 1.385-5.035 0c-1.386-1.386-1.385-3.65 0-5.035 0.693-0.693 1.605-1.039 2.518-1.039v0zM12.705 23.141c-0.611-0-1.222 0.235-1.691 0.705-0.223 0.222-0.4 0.485-0.521 0.775s-0.183 0.602-0.183 0.916c0 0.314 0.062 0.626 0.183 0.916s0.298 0.554 0.521 0.775c0.222 0.223 0.485 0.4 0.775 0.521s0.602 0.183 0.916 0.183c0.314 0 0.626-0.062 0.916-0.183s0.554-0.298 0.775-0.521c0.223-0.221 0.4-0.485 0.521-0.775s0.183-0.602 0.183-0.916c0-0.314-0.062-0.626-0.183-0.916s-0.298-0.554-0.521-0.775c-0.469-0.469-1.080-0.705-1.691-0.705l-0-0z"></path>
</symbol>
<symbol id="daily_task" viewBox="0 0 32 32">
<path fill="none" stroke="#eee" style="stroke: var(--color8, #eee)" stroke-linejoin="round" stroke-linecap="round" stroke-miterlimit="4" stroke-width="2" d="M18 14.666h4.667M4.667 12.491c0-4.631 0-6.947 1.367-8.385s3.567-1.439 7.967-1.439h4c4.4 0 6.6 0 7.967 1.44 1.367 1.436 1.367 3.752 1.367 8.383v7.019c0 4.631 0 6.947-1.367 8.385s-3.567 1.44-7.967 1.44h-4c-4.4 0-6.6 0-7.967-1.44-1.367-1.436-1.367-3.752-1.367-8.383v-7.020z"></path>
<path fill="none" stroke="#eee" style="stroke: var(--color8, #eee)" stroke-linejoin="round" stroke-linecap="round" stroke-miterlimit="4" stroke-width="2" d="M9.334 16c0 0 0.667 0 1.333 1.333 0 0 2.117-3.333 4-4M18.001 22.666h4.667M10.667 2.667l0.109 0.657c0.267 1.596 0.4 2.395 0.96 2.869 0.557 0.473 1.367 0.473 2.985 0.473h2.556c1.617 0 2.427 0 2.987-0.473 0.56-0.475 0.693-1.273 0.959-2.869l0.111-0.657M10.667 22.666h1.333"></path>
</symbol>
<symbol id="design" viewBox="0 0 32 32">
<path fill="#eee" style="fill: var(--color8, #eee)" d="M7.166 2.090c0.171 0.078 0.317 0.203 0.42 0.359s0.161 0.34 0.165 0.528c0.028 1.24 0.47 2.023 0.99 2.83l0.144 0.22c0.49 0.743 1.116 1.693 1.116 2.973 0.001 0.578-0.124 1.149-0.366 1.674s-0.595 0.991-1.034 1.366c0.355 0.367 0.615 0.797 0.805 1.239 0.507 1.175 0.595 2.602 0.595 3.727 0 1.844-0.288 4.908-0.815 7.523-0.263 1.303-0.595 2.55-1.006 3.494-0.203 0.468-0.45 0.919-0.76 1.269-0.304 0.344-0.777 0.708-1.416 0.708s-1.113-0.364-1.417-0.708c-0.309-0.35-0.556-0.8-0.76-1.269-0.411-0.943-0.745-2.19-1.008-3.494-0.528-2.614-0.818-5.679-0.818-7.523 0-1.126 0.090-2.553 0.598-3.729 0.19-0.44 0.45-0.869 0.805-1.235-0.44-0.375-0.793-0.842-1.036-1.367s-0.368-1.097-0.368-1.675c0-0.935 0.118-1.922 0.743-3.060 0.605-1.103 1.65-2.283 3.368-3.71 0.145-0.12 0.32-0.197 0.507-0.222s0.377 0.004 0.548 0.082zM4.497 6.9c-0.413 0.753-0.496 1.377-0.496 2.099 0 0.53 0.211 1.039 0.586 1.414s0.884 0.586 1.414 0.586 1.039-0.211 1.414-0.586c0.375-0.375 0.586-0.884 0.586-1.414 0-0.658-0.296-1.115-0.842-1.958l-0.097-0.15c-0.346-0.534-0.725-1.158-0.986-1.948-0.799 0.782-1.282 1.417-1.579 1.957zM4.435 14.070c-0.336 0.779-0.435 1.855-0.435 2.937 0 1.7 0.274 4.631 0.778 7.128 0.254 1.252 0.554 2.339 0.881 3.090 0.128 0.293 0.245 0.501 0.344 0.64 0.135-0.201 0.25-0.416 0.342-0.64 0.327-0.75 0.627-1.837 0.88-3.090 0.502-2.497 0.775-5.428 0.775-7.128 0-1.084-0.097-2.16-0.431-2.935-0.161-0.373-0.357-0.63-0.581-0.794-0.214-0.156-0.516-0.277-0.985-0.277s-0.772 0.12-0.987 0.278c-0.224 0.165-0.421 0.421-0.582 0.794zM10.984 6.683c0.991-0.473 2.078-0.707 3.176-0.682s2.174 0.308 3.141 0.825c0.968 0.518 1.801 1.255 2.431 2.154s1.040 1.933 1.197 3.019h-3.428c-1.193 0-2.338 0.474-3.182 1.318s-1.318 1.988-1.318 3.181v3.43c-0.553-0.080-1.095-0.226-1.613-0.434-0.055 0.686-0.125 1.37-0.209 2.053 0.592 0.195 1.203 0.327 1.822 0.396v2.556c0 1.194 0.474 2.338 1.318 3.182s1.989 1.318 3.182 1.318h8c1.194 0 2.338-0.474 3.182-1.318s1.318-1.988 1.318-3.182v-8c0-1.194-0.474-2.338-1.318-3.182s-1.988-1.318-3.182-1.318h-2.555c-0.161-1.441-0.667-2.822-1.476-4.025s-1.897-2.193-3.171-2.885c-1.274-0.692-2.696-1.067-4.146-1.091s-2.884 0.302-4.18 0.951l0.027 0.042 0.136 0.205c0.236 0.353 0.57 0.855 0.85 1.483zM25.5 14c0.663 0 1.299 0.263 1.768 0.732s0.732 1.105 0.732 1.768v8c0 0.663-0.263 1.299-0.732 1.768s-1.105 0.732-1.768 0.732h-8c-0.663 0-1.299-0.263-1.768-0.732s-0.732-1.105-0.732-1.768v-2.555c2.029-0.227 3.92-1.138 5.364-2.581s2.354-3.335 2.581-5.364h2.555zM15 19.93v-3.43c0-0.663 0.263-1.299 0.732-1.768s1.105-0.732 1.768-0.732h3.43c-0.216 1.496-0.91 2.882-1.979 3.951s-2.455 1.763-3.951 1.979z"></path>
</symbol>
<symbol id="arrow_left" viewBox="0 0 32 32">
<path fill="none" stroke="#fff" style="stroke: var(--color7, #fff)" stroke-linejoin="round" stroke-linecap="round" stroke-miterlimit="4" stroke-width="1.3333" d="M16 29.333c7.364 0 13.333-5.97 13.333-13.333s-5.97-13.333-13.333-13.333c-7.364 0-13.333 5.97-13.333 13.333s5.97 13.333 13.333 13.333z"></path>
<path fill="none" stroke="#fff" style="stroke: var(--color7, #fff)" stroke-linejoin="round" stroke-linecap="round" stroke-miterlimit="4" stroke-width="1.3333" d="M16 10.667l-5.333 5.333 5.333 5.333"></path>
<path fill="none" stroke="#fff" style="stroke: var(--color7, #fff)" stroke-linejoin="round" stroke-linecap="round" stroke-miterlimit="4" stroke-width="1.3333" d="M21.333 16h-10.667"></path>
</symbol>
<symbol id="arrow_right" viewBox="0 0 32 32">
<path fill="none" stroke="#fff" style="stroke: var(--color7, #fff)" stroke-linejoin="round" stroke-linecap="round" stroke-miterlimit="4" stroke-width="1.3333" d="M16 29.333c7.364 0 13.333-5.97 13.333-13.333s-5.97-13.333-13.333-13.333c-7.364 0-13.333 5.97-13.333 13.333s5.97 13.333 13.333 13.333z"></path>
<path fill="none" stroke="#fff" style="stroke: var(--color7, #fff)" stroke-linejoin="round" stroke-linecap="round" stroke-miterlimit="4" stroke-width="1.3333" d="M16 21.333l5.333-5.333-5.333-5.333"></path>
<path fill="none" stroke="#fff" style="stroke: var(--color7, #fff)" stroke-linejoin="round" stroke-linecap="round" stroke-miterlimit="4" stroke-width="1.3333" d="M10.667 16h10.667"></path>
</symbol>
</defs>
</svg>
